<svg width="30" height="29" viewBox="0 0 30 29" fill="none" xmlns="http://www.w3.org/2000/svg">
<g opacity="0.4" clip-path="url(#clip0)">
<path d="M30.0375 6.05384C28.9289 6.52962 27.7406 6.84907 26.4914 6.99407C27.7664 6.25548 28.7461 5.08642 29.2055 3.69532C28.0148 4.37728 26.6906 4.87345 25.2867 5.14079C24.1617 3.98079 22.5586 3.25806 20.7844 3.25806C17.3766 3.25806 14.6133 5.92696 14.6133 9.22118C14.6133 9.6879 14.6695 10.1433 14.775 10.5806C9.64688 10.3313 5.10234 7.95696 2.05781 4.34782C1.52578 5.23142 1.22344 6.25548 1.22344 7.34751C1.22344 9.41603 2.31094 11.2421 3.96797 12.3138C2.95547 12.282 2.00391 12.0124 1.17188 11.5661C1.17188 11.591 1.17188 11.6159 1.17188 11.6409C1.17188 14.5318 3.3 16.9402 6.11953 17.4907C5.60391 17.6267 5.05781 17.6992 4.49531 17.6992C4.09688 17.6992 3.71016 17.6629 3.33281 17.5904C4.12031 19.958 6.39844 21.6867 9.09609 21.7342C6.98672 23.3338 4.32656 24.2853 1.43438 24.2853C0.935156 24.2853 0.445313 24.2581 -0.0351562 24.2015C2.69297 25.8962 5.93672 26.8817 9.42188 26.8817C20.7703 26.8817 26.9766 17.7943 26.9766 9.91446C26.9766 9.65618 26.9695 9.39564 26.9602 9.14189C28.1648 8.30134 29.2102 7.25009 30.0375 6.05384Z" fill="#373737"/>
</g>
<defs>
<clipPath id="clip0">
<rect width="30" height="29" fill="white"/>
</clipPath>
</defs>
</svg>
