<svg width="29" height="29" viewBox="0 0 29 29" fill="none" xmlns="http://www.w3.org/2000/svg">
<g opacity="0.4">
<path d="M9.27999 1.73999C5.12139 1.73999 1.73999 5.12139 1.73999 9.27999V19.72C1.73999 23.8786 5.12139 27.26 9.27999 27.26H19.72C23.8786 27.26 27.26 23.8786 27.26 19.72V9.27999C27.26 5.12139 23.8786 1.73999 19.72 1.73999H9.27999ZM21.46 6.37999C22.098 6.37999 22.62 6.90199 22.62 7.53999C22.62 8.17799 22.098 8.69999 21.46 8.69999C20.822 8.69999 20.3 8.17799 20.3 7.53999C20.3 6.90199 20.822 6.37999 21.46 6.37999ZM14.5 8.11999C18.0206 8.11999 20.88 10.9794 20.88 14.5C20.88 18.0206 18.0206 20.88 14.5 20.88C10.9794 20.88 8.11999 18.0206 8.11999 14.5C8.11999 10.9794 10.9794 8.11999 14.5 8.11999ZM14.5 9.27999C11.6232 9.27999 9.27999 11.6232 9.27999 14.5C9.27999 17.3768 11.6232 19.72 14.5 19.72C17.3768 19.72 19.72 17.3768 19.72 14.5C19.72 11.6232 17.3768 9.27999 14.5 9.27999Z" fill="#373737"/>
</g>
</svg>
