<svg width="100" height="41" viewBox="0 0 100 41" fill="none" xmlns="http://www.w3.org/2000/svg">
<path d="M30.5254 14.4737V25.999H23.7824V15.101C23.8124 14.5551 23.7046 14.0105 23.4687 13.5167C23.2576 13.149 22.7827 12.9623 22.0439 12.9623C21.5236 13.0025 21.0116 13.1144 20.5223 13.2949C19.8333 13.5167 19.203 13.7501 18.6372 13.9952V25.999H11.8941V15.101C11.9241 14.5551 11.8163 14.0105 11.5804 13.5167C11.3693 13.149 10.8944 12.9623 10.1556 12.9623C9.63075 13.0034 9.11395 13.1153 8.61936 13.2949C7.98217 13.5004 7.35591 13.738 6.74304 14.0069V25.999H0V8.1392H3.99598L5.16868 9.98032C7.79163 8.35998 10.1732 7.5498 12.3134 7.5498C14.6803 7.5498 16.3817 8.28606 17.4176 9.75857C19.8607 8.28801 22.1181 7.55175 24.1899 7.5498C28.4156 7.5498 30.5274 9.85778 30.5254 14.4737Z" fill="#68572D"/>
<path d="M42.6247 7.51275C44.4757 7.51275 46.0393 7.92999 47.3156 8.76448C48.584 9.58369 49.5918 10.7456 50.2209 12.1141C50.8862 13.5804 51.2204 15.1739 51.2001 16.7826V18.7346H40.294C40.5255 19.4764 41.0178 20.1103 41.6807 20.5203C42.4954 20.9839 43.4258 21.2075 44.3633 21.1651C46.0788 21.1619 47.768 20.7444 49.2857 19.9484L51.1708 24.4797C50.1964 25.1231 49.1126 25.5848 47.9723 25.8423C46.5775 26.2099 45.1406 26.3952 43.6978 26.3938C41.7863 26.4306 39.8884 26.0667 38.1274 25.3259C36.5709 24.6656 35.2494 23.5557 34.3337 22.1396C33.3912 20.6211 32.9153 18.8615 32.9646 17.0773C32.9233 15.302 33.3574 13.5477 34.2223 11.9945C35.0299 10.5761 36.2309 9.41923 37.6818 8.66236C39.2086 7.87844 40.9069 7.48346 42.6247 7.51275ZM42.44 12.8873C42.1259 12.8919 41.8164 12.9633 41.5322 13.0966C41.2481 13.23 40.9958 13.4223 40.7924 13.6605C40.5632 13.8932 40.3843 14.1701 40.2668 14.4742C40.1493 14.7783 40.0957 15.1032 40.1093 15.4287H44.7708C44.7689 14.804 44.5631 14.1967 44.1844 13.6985C43.9848 13.4291 43.7206 13.2137 43.4159 13.072C43.1112 12.9303 42.7757 12.8668 42.44 12.8873Z" fill="#68572D"/>
<path d="M62.3467 7.51398C64.1976 7.51398 65.7612 7.93122 67.0375 8.76571C68.3051 9.5851 69.3119 10.747 69.94 12.1153C70.6076 13.5809 70.9429 15.1748 70.9221 16.7838V18.7358H60.016C60.2458 19.4785 60.7385 20.113 61.4027 20.5215C62.2171 20.9858 63.1476 21.2095 64.0852 21.1663C65.7999 21.1635 67.4882 20.7459 69.0047 19.9496L70.8928 24.4809C69.9176 25.1248 68.8327 25.5866 67.6913 25.8435C66.2976 26.2113 64.8616 26.3967 63.4197 26.395C61.5083 26.4317 59.6104 26.0679 57.8494 25.3271C56.2943 24.6659 54.9739 23.5561 54.0586 22.1409C53.1439 20.7306 52.6875 19.0431 52.6895 17.0785C52.6489 15.3064 53.0819 13.5554 53.9443 12.0045C54.7519 10.5861 55.9529 9.42922 57.4038 8.67234C58.9297 7.88504 60.6281 7.48702 62.3467 7.51398ZM62.1532 12.8885C61.839 12.893 61.5295 12.9643 61.2453 13.0976C60.9611 13.231 60.7089 13.4233 60.5056 13.6618C60.2764 13.8945 60.0973 14.1714 59.9794 14.4755C59.8614 14.7795 59.807 15.1043 59.8195 15.4299H64.4986C64.4911 14.8106 64.2857 14.2097 63.9123 13.7143C63.7126 13.4404 63.4467 13.2212 63.1392 13.0768C62.8317 12.9325 62.4925 12.8677 62.1532 12.8885Z" fill="#68572D"/>
<path d="M80.6232 0V25.9975H73.8801V0.405573L80.6232 0Z" fill="#68572D"/>
<path d="M83.9538 8.13818H98.2725L98.6067 11.8584L91.3536 20.7343H98.6419L99.2722 25.9863H83.9538L83.1388 22.5258L90.5034 13.3931H84.5842L83.9538 8.13818Z" fill="#68572D"/>
<path d="M53.6981 32.42C56.1314 32.4433 58.8853 31.9687 61.9598 30.9961C65.0342 30.0235 67.4001 28.868 69.0575 27.5298L70.7785 35.189C68.2949 37.0488 65.5379 38.5162 62.6048 39.5394C59.7303 40.5406 56.7022 41.0344 53.657 40.9983C50.7073 40.971 47.7852 40.4298 45.023 39.3993C42.0294 38.2515 39.2011 36.7151 36.6118 34.8301L38.4442 27.1621C40.3557 28.5665 42.792 29.7862 45.753 30.821C48.7141 31.8559 51.3625 32.3888 53.6981 32.42Z" fill="#68572D"/>
</svg>
